<svg width="38" height="32" viewBox="0 0 19 16" fill="none" xmlns="http://www.w3.org/2000/svg">
<path fill-rule="evenodd" clip-rule="evenodd" d="M18.2024 1.94522H0.807226C0.448451 1.94522 0.154907 1.65253 0.154907 1.29479C0.154907 0.937056 0.448451 0.644363 0.807226 0.644363H18.2024C18.5612 0.644363 18.8547 0.937056 18.8547 1.29479C18.8547 1.65253 18.5612 1.94522 18.2024 1.94522ZM11.6792 6.49832H0.807226C0.448451 6.49832 0.154907 6.20563 0.154907 5.84786C0.154907 5.49013 0.448451 5.19744 0.807226 5.19744H11.6792C12.038 5.19744 12.3315 5.49013 12.3315 5.84786C12.3315 6.20563 12.038 6.49832 11.6792 6.49832ZM0.807226 9.75036H18.2024C18.5612 9.75036 18.8547 10.043 18.8547 10.4008C18.8547 10.7585 18.5612 11.0512 18.2024 11.0512H0.807226C0.448451 11.0512 0.154907 10.7585 0.154907 10.4008C0.154907 10.043 0.448451 9.75036 0.807226 9.75036ZM11.6792 14.3034H0.807226C0.448451 14.3034 0.154907 14.596 0.154907 14.9538C0.154907 15.3115 0.448451 15.6042 0.807226 15.6042H11.6792C12.038 15.6042 12.3315 15.3115 12.3315 14.9538C12.3315 14.596 12.038 14.3034 11.6792 14.3034Z"  fill="#FF5260"/>
</svg>
