<svg width="42" height="42" viewBox="0 0 21 21" fill="none" xmlns="http://www.w3.org/2000/svg">
<path fill-rule="evenodd" clip-rule="evenodd" d="M20.3079 12.3167C20.4196 11.7141 20.478 11.0929 20.478 10.4579C20.478 5.07418 16.2777 0.671438 10.9754 0.347925L10.9567 0.328873H10.349H9.74123L9.72259 0.347925C4.42019 0.671438 0.21991 5.07418 0.21991 10.4579C0.21991 11.0929 0.278334 11.7141 0.390098 12.3167C0.396783 12.3529 0.403671 12.3888 0.410751 12.4248C0.468568 12.7186 0.539107 13.0079 0.62174 13.292C1.79173 17.3145 5.38909 20.3036 9.72259 20.568L9.74123 20.587H10.349H10.9567L10.9754 20.568C15.3089 20.3036 18.9062 17.3145 20.0762 13.292C20.0806 13.2771 20.0848 13.2621 20.0892 13.2471C20.1762 12.9426 20.2493 12.6322 20.3079 12.3167ZM19.2109 11.4231C19.245 11.1061 19.2625 10.7841 19.2625 10.4579C19.2625 6.12941 16.1772 2.52151 12.0858 1.71346C13.1675 3.22769 14.6765 5.90132 14.961 9.32135C16.8492 9.90499 18.28 10.7524 19.2109 11.4231ZM19.043 12.4333C18.1259 11.7533 16.7752 10.9398 15.008 10.368C15.0082 10.398 15.0083 10.428 15.0083 10.4579C15.0083 14.422 13.2846 17.5243 12.0858 19.2024C15.5356 18.5211 18.27 15.8492 19.043 12.4333ZM13.7862 10.0308C13.7906 10.172 13.7929 10.3144 13.7929 10.4579C13.7929 14.5517 11.9545 17.7262 10.7544 19.3625C10.62 19.3685 10.4849 19.3715 10.349 19.3715C10.213 19.3715 10.0779 19.3685 9.94351 19.3625C8.74341 17.7262 6.90509 14.5517 6.90509 10.4579C6.90509 10.3144 6.90735 10.172 6.91177 10.0308C7.94281 9.79387 9.08942 9.64761 10.349 9.64761C11.6085 9.64761 12.7551 9.79387 13.7862 10.0308ZM13.7144 8.99327C13.3512 5.60814 11.8073 2.98884 10.7544 1.55342C10.62 1.5474 10.4849 1.54436 10.349 1.54436C10.213 1.54436 10.0779 1.5474 9.94351 1.55342C8.89069 2.98884 7.34673 5.60814 6.98359 8.99327C7.99982 8.77145 9.12325 8.6347 10.349 8.6347C11.5747 8.6347 12.6981 8.77145 13.7144 8.99327ZM5.73686 9.32135C6.02139 5.90132 7.53047 3.22769 8.61214 1.71346C4.52074 2.52151 1.4354 6.12941 1.4354 10.4579C1.4354 10.7841 1.45291 11.1061 1.48705 11.4231C2.4179 10.7524 3.84876 9.90499 5.73686 9.32135ZM5.6899 10.368C3.92275 10.9398 2.5721 11.7533 1.65505 12.4333C2.42791 15.8492 5.16242 18.5211 8.61214 19.2024C7.41336 17.5243 5.6896 14.422 5.6896 10.4579C5.6896 10.428 5.6897 10.398 5.6899 10.368Z" fill="#FF5260"/>
</svg>
