<svg width="40" height="44" viewBox="0 0 20 22" fill="none" xmlns="http://www.w3.org/2000/svg">
<path fill-rule="evenodd" clip-rule="evenodd" d="M15.2967 5.98637C15.2967 8.89101 12.942 11.2457 10.0373 11.2457C7.1327 11.2457 4.77801 8.89101 4.77801 5.98637C4.77801 3.08173 7.1327 0.727051 10.0373 0.727051C12.942 0.727051 15.2967 3.08173 15.2967 5.98637ZM14.0344 5.98637C14.0344 8.1939 12.2449 9.98346 10.0373 9.98346C7.82981 9.98346 6.04025 8.1939 6.04025 5.98637C6.04025 3.77885 7.82981 1.98929 10.0373 1.98929C12.2449 1.98929 14.0344 3.77885 14.0344 5.98637ZM0.570557 20.7125C0.570557 16.065 4.33804 12.2976 8.98547 12.2976H11.0892C15.7366 12.2976 19.5041 16.065 19.5041 20.7125C19.5041 20.7125 16.3485 21.7643 10.0373 21.7643C3.72615 21.7643 0.570557 20.7125 0.570557 20.7125ZM8.98105 13.5598C5.4682 13.5598 2.4753 16.1107 1.91871 19.5792L1.88539 19.7868C1.88539 19.7868 4.77801 20.5021 10.0373 20.5021C15.2967 20.5021 18.1893 19.7868 18.1893 19.7868L18.1444 19.5211C17.563 16.0793 14.5822 13.5598 11.0916 13.5598H8.98105Z"  fill="#FF5260"/>
</svg>
