<svg width="38" height="42" viewBox="0 0 19 21" fill="none" xmlns="http://www.w3.org/2000/svg">
<path fill-rule="evenodd" clip-rule="evenodd" d="M8.29944 0.865204C7.74367 0.865204 7.27671 1.28313 7.21533 1.83557L7.0354 3.45498C6.08631 3.77916 5.2214 4.28503 4.48218 4.9311L2.98776 4.27635C2.47865 4.0533 1.88325 4.24872 1.60533 4.73007L0.400014 6.81773C0.122106 7.29909 0.250572 7.91245 0.6983 8.24181L2.01135 9.20781C1.91797 9.68494 1.86904 10.1781 1.86904 10.6826C1.86904 11.1871 1.91797 11.6803 2.01135 12.1574L0.6983 13.1234C0.250572 13.4527 0.122106 14.0661 0.400014 14.5475L1.60533 16.6351C1.88325 17.1165 2.47865 17.312 2.98776 17.0889L4.48218 16.4341C5.2214 17.0802 6.08631 17.5861 7.0354 17.9103L7.21533 19.5296C7.27671 20.0821 7.74367 20.5 8.29944 20.5H10.7101C11.2659 20.5 11.7329 20.0821 11.7942 19.5296L11.9742 17.9103C12.9233 17.5861 13.7881 17.0802 14.5274 16.4341L16.0218 17.0889C16.5309 17.312 17.1264 17.1165 17.4042 16.6351L18.6096 14.5475C18.8875 14.0661 18.759 13.4527 18.3113 13.1234L16.9982 12.1574C17.0916 11.6803 17.1406 11.1871 17.1406 10.6826C17.1406 10.1781 17.0916 9.68494 16.9982 9.20781L18.3113 8.24181C18.759 7.91245 18.8875 7.29909 18.6096 6.81773L17.4042 4.73007C17.1264 4.24872 16.5309 4.0533 16.0218 4.27635L14.5274 4.9311C13.7881 4.28503 12.9233 3.77916 11.9742 3.45498L11.7942 1.83557C11.7329 1.28314 11.2659 0.865204 10.7101 0.865204H8.29944ZM13.1707 5.52552C12.8476 5.29547 12.5021 5.095 12.1378 4.92809C11.7054 4.72992 11.2468 4.57905 10.7687 4.48211L10.563 2.65846C10.5319 2.38265 10.2986 2.17419 10.021 2.17419H8.98862C8.71101 2.17419 8.47768 2.38265 8.44659 2.65845L8.24087 4.48211C7.76265 4.57905 7.30411 4.72992 6.87171 4.92809C6.50754 5.095 6.16194 5.29547 5.83889 5.52552C5.44631 5.80509 5.08702 6.12837 4.7681 6.48825L3.08477 5.75411C2.83036 5.64315 2.53318 5.74096 2.3944 5.98133L1.87818 6.87546C1.7394 7.11583 1.80328 7.42209 2.02658 7.58695L3.50263 8.67669C3.35246 9.12622 3.25137 9.59833 3.20574 10.0865C3.1874 10.2827 3.17802 10.4816 3.17802 10.6826C3.17802 10.8836 3.1874 11.0825 3.20574 11.2787C3.25137 11.7669 3.35246 12.239 3.50263 12.6885L2.02658 13.7782C1.80328 13.9431 1.7394 14.2494 1.87818 14.4898L2.3944 15.3838C2.53318 15.6242 2.83036 15.7221 3.08477 15.611L4.7681 14.8769C5.08702 15.2369 5.44631 15.5601 5.83889 15.8397C6.16194 16.0697 6.50754 16.2702 6.87171 16.4371C7.30411 16.6353 7.76265 16.7862 8.24087 16.8831L8.44659 18.7068C8.47768 18.9826 8.71101 19.191 8.98862 19.191H10.021C10.2986 19.191 10.5319 18.9826 10.563 18.7068L10.7687 16.8831C11.2468 16.7862 11.7054 16.6353 12.1378 16.4371C12.5021 16.2702 12.8476 16.0697 13.1707 15.8397C13.5633 15.5601 13.9225 15.2369 14.2415 14.8769L15.9248 15.611C16.1792 15.7221 16.4764 15.6242 16.6152 15.3838L17.1314 14.4898C17.2701 14.2494 17.2063 13.9431 16.983 13.7782L15.5069 12.6885C15.6571 12.239 15.7583 11.767 15.8039 11.2787C15.8222 11.0825 15.8316 10.8836 15.8316 10.6826C15.8316 10.4816 15.8222 10.2827 15.8039 10.0865C15.7583 9.59833 15.6571 9.12622 15.5069 8.67669L16.983 7.58695C17.2063 7.42209 17.2701 7.11583 17.1314 6.87546L16.6152 5.98133C16.4764 5.74096 16.1792 5.64315 15.9248 5.75411L14.2415 6.48824C13.9225 6.12837 13.5633 5.80509 13.1707 5.52552ZM9.5048 15.0459C11.9145 15.0459 13.8681 13.0923 13.8681 10.6826C13.8681 8.27282 11.9145 6.31931 9.5048 6.31931C7.09501 6.31931 5.1415 8.27282 5.1415 10.6826C5.1415 13.0923 7.09501 15.0459 9.5048 15.0459ZM12.5591 10.6826C12.5591 12.3695 11.1916 13.7369 9.5048 13.7369C7.81795 13.7369 6.45049 12.3695 6.45049 10.6826C6.45049 8.99576 7.81795 7.6283 9.5048 7.6283C11.1916 7.6283 12.5591 8.99576 12.5591 10.6826Z"  fill="#FF5260"/>
</svg>
