<svg width="44" height="42" viewBox="0 0 22 21" fill="none" xmlns="http://www.w3.org/2000/svg">
<path fill-rule="evenodd" clip-rule="evenodd" d="M7.17665 0.284897C6.61176 0.284897 6.15985 0.736809 6.15985 1.3017V3.56126C6.15985 4.12615 6.61176 4.57806 7.17665 4.57806C7.74154 4.57806 8.19345 4.12615 8.19345 3.56126V1.3017C8.19345 0.736809 7.74154 0.284897 7.17665 0.284897ZM15.0851 0.284897C14.5203 0.284897 14.0683 0.736809 14.0683 1.3017V3.56126C14.0683 4.12615 14.5203 4.57806 15.0851 4.57806C15.65 4.57806 16.1019 4.12615 16.1019 3.56126V1.3017C16.1019 0.736809 15.65 0.284897 15.0851 0.284897ZM21.9767 3.56132V8.53229H0.284912V3.56132C0.284912 2.56711 1.09835 1.75367 2.09256 1.75367H4.80403V3.56132C4.80403 4.87186 5.86602 5.93385 7.17657 5.93385C8.48711 5.93385 9.54911 4.87186 9.54911 3.56132V1.75367H12.7125V3.56132C12.7125 4.87186 13.7745 5.93385 15.085 5.93385C16.3956 5.93385 17.4576 4.87186 17.4576 3.56132V1.75367H20.169C21.1632 1.75367 21.9767 2.56711 21.9767 3.56132ZM2.09256 20.056C1.09835 20.056 0.284912 19.2426 0.284912 18.2484V9.88803H21.9767V18.2484C21.9767 19.2426 21.1632 20.056 20.169 20.056H2.09256ZM3.78723 12.5994H4.91701C5.28984 12.5994 5.59488 12.9044 5.59488 13.2773C5.59488 13.6501 5.28984 13.9551 4.91701 13.9551H3.78723C3.4144 13.9551 3.10936 13.6501 3.10936 13.2773C3.10936 12.9044 3.4144 12.5994 3.78723 12.5994ZM8.30635 12.5994H9.43613C9.80896 12.5994 10.114 12.9044 10.114 13.2773C10.114 13.6501 9.80896 13.9551 9.43613 13.9551H8.30635C7.93352 13.9551 7.62848 13.6501 7.62848 13.2773C7.62848 12.9044 7.93352 12.5994 8.30635 12.5994ZM13.9552 12.5994H12.8255C12.4526 12.5994 12.1476 12.9044 12.1476 13.2773C12.1476 13.6501 12.4526 13.9551 12.8255 13.9551H13.9552C14.3281 13.9551 14.6331 13.6501 14.6331 13.2773C14.6331 12.9044 14.3281 12.5994 13.9552 12.5994ZM18.4744 13.9551H17.3446C16.9718 13.9551 16.6667 13.6501 16.6667 13.2773C16.6667 12.9044 16.9718 12.5994 17.3446 12.5994H18.4744C18.8472 12.5994 19.1522 12.9044 19.1522 13.2773C19.1522 13.6501 18.8472 13.9551 18.4744 13.9551ZM3.78723 15.9887H4.91701C5.28984 15.9887 5.59488 16.2938 5.59488 16.6666C5.59488 17.0394 5.28984 17.3445 4.91701 17.3445H3.78723C3.4144 17.3445 3.10936 17.0394 3.10936 16.6666C3.10936 16.2938 3.4144 15.9887 3.78723 15.9887ZM8.30635 15.9887H9.43613C9.80896 15.9887 10.114 16.2938 10.114 16.6666C10.114 17.0394 9.80896 17.3445 9.43613 17.3445H8.30635C7.93352 17.3445 7.62848 17.0394 7.62848 16.6666C7.62848 16.2938 7.93352 15.9887 8.30635 15.9887ZM13.9552 15.9887H12.8255C12.4526 15.9887 12.1476 16.2938 12.1476 16.6666C12.1476 17.0394 12.4526 17.3445 12.8255 17.3445H13.9552C14.3281 17.3445 14.6331 17.0394 14.6331 16.6666C14.6331 16.2938 14.3281 15.9887 13.9552 15.9887ZM17.3446 15.9887H18.4744C18.8472 15.9887 19.1522 16.2938 19.1522 16.6666C19.1522 17.0394 18.8472 17.3445 18.4744 17.3445H17.3446C16.9718 17.3445 16.6667 17.0394 16.6667 16.6666C16.6667 16.2938 16.9718 15.9887 17.3446 15.9887Z" fill="#454545"/>
</svg>
