<svg width="40" height="40" viewBox="0 0 36 36" fill="none" xmlns="http://www.w3.org/2000/svg">
<path fill-rule="evenodd" clip-rule="evenodd" d="M21 21.75C21 20.5074 22.0074 19.5 23.25 19.5H26.25C27.4926 19.5 28.5 20.5074 28.5 21.75C28.5 22.9926 27.4926 24 26.25 24H23.25C22.0074 24 21 22.9926 21 21.75ZM7.49997 23.4C7.49997 22.9029 7.90291 22.5 8.39997 22.5H17.1C17.5971 22.5 18 22.9029 18 23.4C18 23.8971 17.5971 24.3 17.1 24.3H8.39997C7.90291 24.3 7.49997 23.8971 7.49997 23.4ZM8.39997 19.5C7.90291 19.5 7.49997 19.9029 7.49997 20.4C7.49997 20.8971 7.90291 21.3 8.39997 21.3H12.6C13.097 21.3 13.5 20.8971 13.5 20.4C13.5 19.9029 13.097 19.5 12.6 19.5H8.39997Z" fill="#454545"/>
<path fill-rule="evenodd" clip-rule="evenodd" d="M2.99997 10.5C2.99997 8.84314 4.34311 7.5 5.99997 7.5H30C31.6569 7.5 33 8.84314 33 10.5V12V16.5V25.5C33 27.1569 31.6569 28.5 30 28.5H5.99997C4.34311 28.5 2.99997 27.1569 2.99997 25.5V16.5V12V10.5ZM4.79997 16.5V25.2C4.79997 26.0284 5.47155 26.7 6.29997 26.7H29.7C30.5284 26.7 31.2 26.0284 31.2 25.2V16.5H4.79997ZM31.2 12H4.79997V10.8C4.79997 9.97156 5.47155 9.3 6.29997 9.3H29.7C30.5284 9.3 31.2 9.97158 31.2 10.8V12Z" fill="#454545"/>
<path fill-rule="evenodd" clip-rule="evenodd" d="M8.39997 19.5C7.90291 19.5 7.49997 19.9029 7.49997 20.4C7.49997 20.8971 7.90291 21.3 8.39997 21.3H12.6C13.097 21.3 13.5 20.8971 13.5 20.4C13.5 19.9029 13.097 19.5 12.6 19.5H8.39997ZM8.39997 22.5C7.90291 22.5 7.49997 22.9029 7.49997 23.4C7.49997 23.8971 7.90291 24.3 8.39997 24.3H17.1C17.5971 24.3 18 23.8971 18 23.4C18 22.9029 17.5971 22.5 17.1 22.5H8.39997Z" fill="black" fill-opacity="0.3"/>
</svg>
